<?xml version="1.0" encoding="UTF-8" standalone="no"?>
<!DOCTYPE svg PUBLIC "-//W3C//DTD SVG 1.1//EN"
 "http://www.w3.org/Graphics/SVG/1.1/DTD/svg11.dtd">
<!-- Generated by graphviz version 2.49.0 (20210829.0051)
 -->
<!-- Title: snakemake_dag Pages: 1 -->
<svg width="265pt" height="476pt"
 viewBox="0.00 0.00 265.00 476.00" xmlns="http://www.w3.org/2000/svg" xmlns:xlink="http://www.w3.org/1999/xlink">
<g id="graph0" class="graph" transform="scale(1 1) rotate(0) translate(4 472)">
<title>snakemake_dag</title>
<polygon fill="white" stroke="transparent" points="-4,4 -4,-472 261,-472 261,4 -4,4"/>
<!-- 0 -->
<g id="node1" class="node">
<title>0</title>
<path fill="none" stroke="#56d8a9" stroke-width="2" d="M168,-36C168,-36 138,-36 138,-36 132,-36 126,-30 126,-24 126,-24 126,-12 126,-12 126,-6 132,0 138,0 138,0 168,0 168,0 174,0 180,-6 180,-12 180,-12 180,-24 180,-24 180,-30 174,-36 168,-36"/>
<text text-anchor="middle" x="153" y="-15.5" font-family="sans" font-size="10.00">all</text>
</g>
<!-- 1 -->
<g id="node2" class="node">
<title>1</title>
<path fill="none" stroke="#d88d56" stroke-width="2" d="M80,-108C80,-108 12,-108 12,-108 6,-108 0,-102 0,-96 0,-96 0,-84 0,-84 0,-78 6,-72 12,-72 12,-72 80,-72 80,-72 86,-72 92,-78 92,-84 92,-84 92,-96 92,-96 92,-102 86,-108 80,-108"/>
<text text-anchor="middle" x="46" y="-87.5" font-family="sans" font-size="10.00">funcpredict_run</text>
</g>
<!-- 1&#45;&gt;0 -->
<g id="edge1" class="edge">
<title>1&#45;&gt;0</title>
<path fill="none" stroke="grey" stroke-width="2" d="M72.18,-71.88C86.04,-62.81 103.24,-51.55 118.21,-41.76"/>
<polygon fill="grey" stroke="grey" stroke-width="2" points="120.27,-44.59 126.72,-36.19 116.44,-38.74 120.27,-44.59"/>
</g>
<!-- 2 -->
<g id="node3" class="node">
<title>2</title>
<path fill="none" stroke="#d8cb56" stroke-width="2" d="M160.5,-180C160.5,-180 87.5,-180 87.5,-180 81.5,-180 75.5,-174 75.5,-168 75.5,-168 75.5,-156 75.5,-156 75.5,-150 81.5,-144 87.5,-144 87.5,-144 160.5,-144 160.5,-144 166.5,-144 172.5,-150 172.5,-156 172.5,-156 172.5,-168 172.5,-168 172.5,-174 166.5,-180 160.5,-180"/>
<text text-anchor="middle" x="124" y="-159.5" font-family="sans" font-size="10.00">funannotate_run</text>
</g>
<!-- 2&#45;&gt;1 -->
<g id="edge4" class="edge">
<title>2&#45;&gt;1</title>
<path fill="none" stroke="grey" stroke-width="2" d="M104.72,-143.7C95.08,-135.05 83.27,-124.45 72.77,-115.03"/>
<polygon fill="grey" stroke="grey" stroke-width="2" points="74.84,-112.18 65.06,-108.1 70.16,-117.39 74.84,-112.18"/>
</g>
<!-- 8 -->
<g id="node9" class="node">
<title>8</title>
<path fill="none" stroke="#56c9d8" stroke-width="2" d="M184,-108C184,-108 122,-108 122,-108 116,-108 110,-102 110,-96 110,-96 110,-84 110,-84 110,-78 116,-72 122,-72 122,-72 184,-72 184,-72 190,-72 196,-78 196,-84 196,-84 196,-96 196,-96 196,-102 190,-108 184,-108"/>
<text text-anchor="middle" x="153" y="-87.5" font-family="sans" font-size="10.00">buscoprot_run</text>
</g>
<!-- 2&#45;&gt;8 -->
<g id="edge10" class="edge">
<title>2&#45;&gt;8</title>
<path fill="none" stroke="grey" stroke-width="2" d="M131.17,-143.7C134.43,-135.81 138.37,-126.3 142,-117.55"/>
<polygon fill="grey" stroke="grey" stroke-width="2" points="145.32,-118.68 145.91,-108.1 138.85,-116 145.32,-118.68"/>
</g>
<!-- 3 -->
<g id="node4" class="node">
<title>3</title>
<path fill="none" stroke="#d85656" stroke-width="2" d="M177.5,-252C177.5,-252 80.5,-252 80.5,-252 74.5,-252 68.5,-246 68.5,-240 68.5,-240 68.5,-228 68.5,-228 68.5,-222 74.5,-216 80.5,-216 80.5,-216 177.5,-216 177.5,-216 183.5,-216 189.5,-222 189.5,-228 189.5,-228 189.5,-240 189.5,-240 189.5,-246 183.5,-252 177.5,-252"/>
<text text-anchor="middle" x="129" y="-231.5" font-family="sans" font-size="10.00">funannotate_sort_run</text>
</g>
<!-- 3&#45;&gt;2 -->
<g id="edge5" class="edge">
<title>3&#45;&gt;2</title>
<path fill="none" stroke="grey" stroke-width="2" d="M127.76,-215.7C127.21,-207.98 126.55,-198.71 125.94,-190.11"/>
<polygon fill="grey" stroke="grey" stroke-width="2" points="129.43,-189.83 125.22,-180.1 122.44,-190.33 129.43,-189.83"/>
</g>
<!-- 4 -->
<g id="node5" class="node">
<title>4</title>
<path fill="none" stroke="#afd856" stroke-width="2" d="M201,-324C201,-324 145,-324 145,-324 139,-324 133,-318 133,-312 133,-312 133,-300 133,-300 133,-294 139,-288 145,-288 145,-288 201,-288 201,-288 207,-288 213,-294 213,-300 213,-300 213,-312 213,-312 213,-318 207,-324 201,-324"/>
<text text-anchor="middle" x="173" y="-303.5" font-family="sans" font-size="10.00">sizefilter_run</text>
</g>
<!-- 4&#45;&gt;3 -->
<g id="edge6" class="edge">
<title>4&#45;&gt;3</title>
<path fill="none" stroke="grey" stroke-width="2" d="M162.12,-287.7C157.01,-279.56 150.8,-269.69 145.16,-260.7"/>
<polygon fill="grey" stroke="grey" stroke-width="2" points="148.04,-258.71 139.75,-252.1 142.11,-262.43 148.04,-258.71"/>
</g>
<!-- 7 -->
<g id="node8" class="node">
<title>7</title>
<path fill="none" stroke="#70d856" stroke-width="2" d="M245,-180C245,-180 203,-180 203,-180 197,-180 191,-174 191,-168 191,-168 191,-156 191,-156 191,-150 197,-144 203,-144 203,-144 245,-144 245,-144 251,-144 257,-150 257,-156 257,-156 257,-168 257,-168 257,-174 251,-180 245,-180"/>
<text text-anchor="middle" x="224" y="-159.5" font-family="sans" font-size="10.00">busco_run</text>
</g>
<!-- 4&#45;&gt;7 -->
<g id="edge9" class="edge">
<title>4&#45;&gt;7</title>
<path fill="none" stroke="grey" stroke-width="2" d="M182.04,-287.63C187.13,-277.43 193.38,-264.18 198,-252 205.73,-231.62 212.56,-207.89 217.27,-190.07"/>
<polygon fill="grey" stroke="grey" stroke-width="2" points="220.68,-190.88 219.8,-180.32 213.9,-189.13 220.68,-190.88"/>
</g>
<!-- 5 -->
<g id="node6" class="node">
<title>5</title>
<path fill="none" stroke="#5692d8" stroke-width="2" d="M222.5,-396C222.5,-396 123.5,-396 123.5,-396 117.5,-396 111.5,-390 111.5,-384 111.5,-384 111.5,-372 111.5,-372 111.5,-366 117.5,-360 123.5,-360 123.5,-360 222.5,-360 222.5,-360 228.5,-360 234.5,-366 234.5,-372 234.5,-372 234.5,-384 234.5,-384 234.5,-390 228.5,-396 222.5,-396"/>
<text text-anchor="middle" x="173" y="-381" font-family="sans" font-size="10.00">spades_run</text>
<text text-anchor="middle" x="173" y="-370" font-family="sans" font-size="10.00">sample: WGA_10a_S2</text>
</g>
<!-- 5&#45;&gt;4 -->
<g id="edge7" class="edge">
<title>5&#45;&gt;4</title>
<path fill="none" stroke="grey" stroke-width="2" d="M173,-359.7C173,-351.98 173,-342.71 173,-334.11"/>
<polygon fill="grey" stroke="grey" stroke-width="2" points="176.5,-334.1 173,-324.1 169.5,-334.1 176.5,-334.1"/>
</g>
<!-- 6 -->
<g id="node7" class="node">
<title>6</title>
<path fill="none" stroke="#56d873" stroke-width="2" d="M205,-468C205,-468 141,-468 141,-468 135,-468 129,-462 129,-456 129,-456 129,-444 129,-444 129,-438 135,-432 141,-432 141,-432 205,-432 205,-432 211,-432 217,-438 217,-444 217,-444 217,-456 217,-456 217,-462 211,-468 205,-468"/>
<text text-anchor="middle" x="173" y="-447.5" font-family="sans" font-size="10.00">fastp_trim_run</text>
</g>
<!-- 6&#45;&gt;5 -->
<g id="edge8" class="edge">
<title>6&#45;&gt;5</title>
<path fill="none" stroke="grey" stroke-width="2" d="M173,-431.7C173,-423.98 173,-414.71 173,-406.11"/>
<polygon fill="grey" stroke="grey" stroke-width="2" points="176.5,-406.1 173,-396.1 169.5,-406.1 176.5,-406.1"/>
</g>
<!-- 7&#45;&gt;0 -->
<g id="edge2" class="edge">
<title>7&#45;&gt;0</title>
<path fill="none" stroke="grey" stroke-width="2" d="M223.18,-143.96C221.67,-125.3 217.34,-94.96 205,-72 199.29,-61.37 190.8,-51.43 182.34,-43.1"/>
<polygon fill="grey" stroke="grey" stroke-width="2" points="184.67,-40.48 174.97,-36.21 179.88,-45.6 184.67,-40.48"/>
</g>
<!-- 8&#45;&gt;0 -->
<g id="edge3" class="edge">
<title>8&#45;&gt;0</title>
<path fill="none" stroke="grey" stroke-width="2" d="M153,-71.7C153,-63.98 153,-54.71 153,-46.11"/>
<polygon fill="grey" stroke="grey" stroke-width="2" points="156.5,-46.1 153,-36.1 149.5,-46.1 156.5,-46.1"/>
</g>
</g>
</svg>
