<?xml version="1.0" encoding="UTF-8" standalone="no"?>
<!DOCTYPE svg PUBLIC "-//W3C//DTD SVG 1.1//EN"
 "http://www.w3.org/Graphics/SVG/1.1/DTD/svg11.dtd">
<!-- Generated by graphviz version 2.49.0 (20210829.0051)
 -->
<!-- Title: snakemake_dag Pages: 1 -->
<svg width="197pt" height="476pt"
 viewBox="0.00 0.00 196.50 476.00" xmlns="http://www.w3.org/2000/svg" xmlns:xlink="http://www.w3.org/1999/xlink">
<g id="graph0" class="graph" transform="scale(1 1) rotate(0) translate(4 472)">
<title>snakemake_dag</title>
<polygon fill="white" stroke="transparent" points="-4,4 -4,-472 192.5,-472 192.5,4 -4,4"/>
<!-- 0 -->
<g id="node1" class="node">
<title>0</title>
<path fill="none" stroke="#56c9d8" stroke-width="2" d="M99.5,-36C99.5,-36 69.5,-36 69.5,-36 63.5,-36 57.5,-30 57.5,-24 57.5,-24 57.5,-12 57.5,-12 57.5,-6 63.5,0 69.5,0 69.5,0 99.5,0 99.5,0 105.5,0 111.5,-6 111.5,-12 111.5,-12 111.5,-24 111.5,-24 111.5,-30 105.5,-36 99.5,-36"/>
<text text-anchor="middle" x="84.5" y="-15.5" font-family="sans" font-size="10.00">all</text>
</g>
<!-- 1 -->
<g id="node2" class="node">
<title>1</title>
<path fill="none" stroke="#d8cb56" stroke-width="2" d="M92,-180C92,-180 19,-180 19,-180 13,-180 7,-174 7,-168 7,-168 7,-156 7,-156 7,-150 13,-144 19,-144 19,-144 92,-144 92,-144 98,-144 104,-150 104,-156 104,-156 104,-168 104,-168 104,-174 98,-180 92,-180"/>
<text text-anchor="middle" x="55.5" y="-159.5" font-family="sans" font-size="10.00">funannotate_run</text>
</g>
<!-- 1&#45;&gt;0 -->
<g id="edge1" class="edge">
<title>1&#45;&gt;0</title>
<path fill="none" stroke="grey" stroke-width="2" d="M44.7,-143.83C34.67,-125.58 22.66,-96.08 32.5,-72 36.99,-61.02 44.97,-51.08 53.35,-42.86"/>
<polygon fill="grey" stroke="grey" stroke-width="2" points="55.74,-45.42 60.75,-36.09 51.01,-40.26 55.74,-45.42"/>
</g>
<!-- 7 -->
<g id="node8" class="node">
<title>7</title>
<path fill="none" stroke="#d85656" stroke-width="2" d="M115.5,-108C115.5,-108 53.5,-108 53.5,-108 47.5,-108 41.5,-102 41.5,-96 41.5,-96 41.5,-84 41.5,-84 41.5,-78 47.5,-72 53.5,-72 53.5,-72 115.5,-72 115.5,-72 121.5,-72 127.5,-78 127.5,-84 127.5,-84 127.5,-96 127.5,-96 127.5,-102 121.5,-108 115.5,-108"/>
<text text-anchor="middle" x="84.5" y="-87.5" font-family="sans" font-size="10.00">buscoprot_run</text>
</g>
<!-- 1&#45;&gt;7 -->
<g id="edge9" class="edge">
<title>1&#45;&gt;7</title>
<path fill="none" stroke="grey" stroke-width="2" d="M62.67,-143.7C65.93,-135.81 69.87,-126.3 73.5,-117.55"/>
<polygon fill="grey" stroke="grey" stroke-width="2" points="76.82,-118.68 77.41,-108.1 70.35,-116 76.82,-118.68"/>
</g>
<!-- 2 -->
<g id="node3" class="node">
<title>2</title>
<path fill="none" stroke="#56d8a9" stroke-width="2" d="M109,-252C109,-252 12,-252 12,-252 6,-252 0,-246 0,-240 0,-240 0,-228 0,-228 0,-222 6,-216 12,-216 12,-216 109,-216 109,-216 115,-216 121,-222 121,-228 121,-228 121,-240 121,-240 121,-246 115,-252 109,-252"/>
<text text-anchor="middle" x="60.5" y="-231.5" font-family="sans" font-size="10.00">funannotate_sort_run</text>
</g>
<!-- 2&#45;&gt;1 -->
<g id="edge4" class="edge">
<title>2&#45;&gt;1</title>
<path fill="none" stroke="grey" stroke-width="2" d="M59.26,-215.7C58.71,-207.98 58.05,-198.71 57.44,-190.11"/>
<polygon fill="grey" stroke="grey" stroke-width="2" points="60.93,-189.83 56.72,-180.1 53.94,-190.33 60.93,-189.83"/>
</g>
<!-- 3 -->
<g id="node4" class="node">
<title>3</title>
<path fill="none" stroke="#d88d56" stroke-width="2" d="M132.5,-324C132.5,-324 76.5,-324 76.5,-324 70.5,-324 64.5,-318 64.5,-312 64.5,-312 64.5,-300 64.5,-300 64.5,-294 70.5,-288 76.5,-288 76.5,-288 132.5,-288 132.5,-288 138.5,-288 144.5,-294 144.5,-300 144.5,-300 144.5,-312 144.5,-312 144.5,-318 138.5,-324 132.5,-324"/>
<text text-anchor="middle" x="104.5" y="-303.5" font-family="sans" font-size="10.00">sizefilter_run</text>
</g>
<!-- 3&#45;&gt;2 -->
<g id="edge5" class="edge">
<title>3&#45;&gt;2</title>
<path fill="none" stroke="grey" stroke-width="2" d="M93.62,-287.7C88.51,-279.56 82.3,-269.69 76.66,-260.7"/>
<polygon fill="grey" stroke="grey" stroke-width="2" points="79.54,-258.71 71.25,-252.1 73.61,-262.43 79.54,-258.71"/>
</g>
<!-- 6 -->
<g id="node7" class="node">
<title>6</title>
<path fill="none" stroke="#5692d8" stroke-width="2" d="M176.5,-180C176.5,-180 134.5,-180 134.5,-180 128.5,-180 122.5,-174 122.5,-168 122.5,-168 122.5,-156 122.5,-156 122.5,-150 128.5,-144 134.5,-144 134.5,-144 176.5,-144 176.5,-144 182.5,-144 188.5,-150 188.5,-156 188.5,-156 188.5,-168 188.5,-168 188.5,-174 182.5,-180 176.5,-180"/>
<text text-anchor="middle" x="155.5" y="-159.5" font-family="sans" font-size="10.00">busco_run</text>
</g>
<!-- 3&#45;&gt;6 -->
<g id="edge8" class="edge">
<title>3&#45;&gt;6</title>
<path fill="none" stroke="grey" stroke-width="2" d="M113.54,-287.63C118.63,-277.43 124.88,-264.18 129.5,-252 137.23,-231.62 144.06,-207.89 148.77,-190.07"/>
<polygon fill="grey" stroke="grey" stroke-width="2" points="152.18,-190.88 151.3,-180.32 145.4,-189.13 152.18,-190.88"/>
</g>
<!-- 4 -->
<g id="node5" class="node">
<title>4</title>
<path fill="none" stroke="#70d856" stroke-width="2" d="M154,-396C154,-396 55,-396 55,-396 49,-396 43,-390 43,-384 43,-384 43,-372 43,-372 43,-366 49,-360 55,-360 55,-360 154,-360 154,-360 160,-360 166,-366 166,-372 166,-372 166,-384 166,-384 166,-390 160,-396 154,-396"/>
<text text-anchor="middle" x="104.5" y="-381" font-family="sans" font-size="10.00">spades_run</text>
<text text-anchor="middle" x="104.5" y="-370" font-family="sans" font-size="10.00">sample: WGA_10a_S2</text>
</g>
<!-- 4&#45;&gt;3 -->
<g id="edge6" class="edge">
<title>4&#45;&gt;3</title>
<path fill="none" stroke="grey" stroke-width="2" d="M104.5,-359.7C104.5,-351.98 104.5,-342.71 104.5,-334.11"/>
<polygon fill="grey" stroke="grey" stroke-width="2" points="108,-334.1 104.5,-324.1 101,-334.1 108,-334.1"/>
</g>
<!-- 5 -->
<g id="node6" class="node">
<title>5</title>
<path fill="none" stroke="#afd856" stroke-width="2" d="M136.5,-468C136.5,-468 72.5,-468 72.5,-468 66.5,-468 60.5,-462 60.5,-456 60.5,-456 60.5,-444 60.5,-444 60.5,-438 66.5,-432 72.5,-432 72.5,-432 136.5,-432 136.5,-432 142.5,-432 148.5,-438 148.5,-444 148.5,-444 148.5,-456 148.5,-456 148.5,-462 142.5,-468 136.5,-468"/>
<text text-anchor="middle" x="104.5" y="-447.5" font-family="sans" font-size="10.00">fastp_trim_run</text>
</g>
<!-- 5&#45;&gt;4 -->
<g id="edge7" class="edge">
<title>5&#45;&gt;4</title>
<path fill="none" stroke="grey" stroke-width="2" d="M104.5,-431.7C104.5,-423.98 104.5,-414.71 104.5,-406.11"/>
<polygon fill="grey" stroke="grey" stroke-width="2" points="108,-406.1 104.5,-396.1 101,-406.1 108,-406.1"/>
</g>
<!-- 6&#45;&gt;0 -->
<g id="edge2" class="edge">
<title>6&#45;&gt;0</title>
<path fill="none" stroke="grey" stroke-width="2" d="M154.68,-143.96C153.17,-125.3 148.84,-94.96 136.5,-72 130.79,-61.37 122.3,-51.43 113.84,-43.1"/>
<polygon fill="grey" stroke="grey" stroke-width="2" points="116.17,-40.48 106.47,-36.21 111.38,-45.6 116.17,-40.48"/>
</g>
<!-- 7&#45;&gt;0 -->
<g id="edge3" class="edge">
<title>7&#45;&gt;0</title>
<path fill="none" stroke="grey" stroke-width="2" d="M84.5,-71.7C84.5,-63.98 84.5,-54.71 84.5,-46.11"/>
<polygon fill="grey" stroke="grey" stroke-width="2" points="88,-46.1 84.5,-36.1 81,-46.1 88,-46.1"/>
</g>
</g>
</svg>
