<?xml version="1.0" encoding="UTF-8" standalone="no"?>
<!DOCTYPE svg PUBLIC "-//W3C//DTD SVG 1.1//EN"
 "http://www.w3.org/Graphics/SVG/1.1/DTD/svg11.dtd">
<!-- Generated by graphviz version 2.49.0 (20210829.0051)
 -->
<!-- Title: snakemake_dag Pages: 1 -->
<svg width="131pt" height="548pt"
 viewBox="0.00 0.00 131.00 548.00" xmlns="http://www.w3.org/2000/svg" xmlns:xlink="http://www.w3.org/1999/xlink">
<g id="graph0" class="graph" transform="scale(1 1) rotate(0) translate(4 544)">
<title>snakemake_dag</title>
<polygon fill="white" stroke="transparent" points="-4,4 -4,-544 127,-544 127,4 -4,4"/>
<!-- 0 -->
<g id="node1" class="node">
<title>0</title>
<path fill="none" stroke="#56d8c1" stroke-width="2" d="M95.5,-36C95.5,-36 27.5,-36 27.5,-36 21.5,-36 15.5,-30 15.5,-24 15.5,-24 15.5,-12 15.5,-12 15.5,-6 21.5,0 27.5,0 27.5,0 95.5,0 95.5,0 101.5,0 107.5,-6 107.5,-12 107.5,-12 107.5,-24 107.5,-24 107.5,-30 101.5,-36 95.5,-36"/>
<text text-anchor="middle" x="61.5" y="-15.5" font-family="sans" font-size="10.00">funcpredict_run</text>
</g>
<!-- 1 -->
<g id="node2" class="node">
<title>1</title>
<path fill="none" stroke="#88d856" stroke-width="2" d="M98,-108C98,-108 25,-108 25,-108 19,-108 13,-102 13,-96 13,-96 13,-84 13,-84 13,-78 19,-72 25,-72 25,-72 98,-72 98,-72 104,-72 110,-78 110,-84 110,-84 110,-96 110,-96 110,-102 104,-108 98,-108"/>
<text text-anchor="middle" x="61.5" y="-87.5" font-family="sans" font-size="10.00">funannotate_run</text>
</g>
<!-- 1&#45;&gt;0 -->
<g id="edge1" class="edge">
<title>1&#45;&gt;0</title>
<path fill="none" stroke="grey" stroke-width="2" d="M61.5,-71.7C61.5,-63.98 61.5,-54.71 61.5,-46.11"/>
<polygon fill="grey" stroke="grey" stroke-width="2" points="65,-46.1 61.5,-36.1 58,-46.1 65,-46.1"/>
</g>
<!-- 2 -->
<g id="node3" class="node">
<title>2</title>
<path fill="none" stroke="#d85656" stroke-width="2" d="M110,-180C110,-180 13,-180 13,-180 7,-180 1,-174 1,-168 1,-168 1,-156 1,-156 1,-150 7,-144 13,-144 13,-144 110,-144 110,-144 116,-144 122,-150 122,-156 122,-156 122,-168 122,-168 122,-174 116,-180 110,-180"/>
<text text-anchor="middle" x="61.5" y="-159.5" font-family="sans" font-size="10.00">funannotate_sort_run</text>
</g>
<!-- 2&#45;&gt;1 -->
<g id="edge2" class="edge">
<title>2&#45;&gt;1</title>
<path fill="none" stroke="grey" stroke-width="2" d="M61.5,-143.7C61.5,-135.98 61.5,-126.71 61.5,-118.11"/>
<polygon fill="grey" stroke="grey" stroke-width="2" points="65,-118.1 61.5,-108.1 58,-118.1 65,-118.1"/>
</g>
<!-- 3 -->
<g id="node4" class="node">
<title>3</title>
<path fill="none" stroke="#d8bc56" stroke-width="2" d="M89.5,-252C89.5,-252 33.5,-252 33.5,-252 27.5,-252 21.5,-246 21.5,-240 21.5,-240 21.5,-228 21.5,-228 21.5,-222 27.5,-216 33.5,-216 33.5,-216 89.5,-216 89.5,-216 95.5,-216 101.5,-222 101.5,-228 101.5,-228 101.5,-240 101.5,-240 101.5,-246 95.5,-252 89.5,-252"/>
<text text-anchor="middle" x="61.5" y="-231.5" font-family="sans" font-size="10.00">sizefilter_run</text>
</g>
<!-- 3&#45;&gt;2 -->
<g id="edge3" class="edge">
<title>3&#45;&gt;2</title>
<path fill="none" stroke="grey" stroke-width="2" d="M61.5,-215.7C61.5,-207.98 61.5,-198.71 61.5,-190.11"/>
<polygon fill="grey" stroke="grey" stroke-width="2" points="65,-190.1 61.5,-180.1 58,-190.1 65,-190.1"/>
</g>
<!-- 4 -->
<g id="node5" class="node">
<title>4</title>
<path fill="none" stroke="#d88d56" stroke-width="2" d="M85.5,-324C85.5,-324 37.5,-324 37.5,-324 31.5,-324 25.5,-318 25.5,-312 25.5,-312 25.5,-300 25.5,-300 25.5,-294 31.5,-288 37.5,-288 37.5,-288 85.5,-288 85.5,-288 91.5,-288 97.5,-294 97.5,-300 97.5,-300 97.5,-312 97.5,-312 97.5,-318 91.5,-324 85.5,-324"/>
<text text-anchor="middle" x="61.5" y="-303.5" font-family="sans" font-size="10.00">spades_run</text>
</g>
<!-- 4&#45;&gt;3 -->
<g id="edge4" class="edge">
<title>4&#45;&gt;3</title>
<path fill="none" stroke="grey" stroke-width="2" d="M61.5,-287.7C61.5,-279.98 61.5,-270.71 61.5,-262.11"/>
<polygon fill="grey" stroke="grey" stroke-width="2" points="65,-262.1 61.5,-252.1 58,-262.1 65,-262.1"/>
</g>
<!-- 5 -->
<g id="node6" class="node">
<title>5</title>
<path fill="none" stroke="#568ad8" stroke-width="2" d="M88,-396C88,-396 35,-396 35,-396 29,-396 23,-390 23,-384 23,-384 23,-372 23,-372 23,-366 29,-360 35,-360 35,-360 88,-360 88,-360 94,-360 100,-366 100,-372 100,-372 100,-384 100,-384 100,-390 94,-396 88,-396"/>
<text text-anchor="middle" x="61.5" y="-375.5" font-family="sans" font-size="10.00">kraken2_run</text>
</g>
<!-- 5&#45;&gt;4 -->
<g id="edge5" class="edge">
<title>5&#45;&gt;4</title>
<path fill="none" stroke="grey" stroke-width="2" d="M61.5,-359.7C61.5,-351.98 61.5,-342.71 61.5,-334.11"/>
<polygon fill="grey" stroke="grey" stroke-width="2" points="65,-334.1 61.5,-324.1 58,-334.1 65,-334.1"/>
</g>
<!-- 6 -->
<g id="node7" class="node">
<title>6</title>
<path fill="none" stroke="#56d88a" stroke-width="2" d="M87,-468C87,-468 36,-468 36,-468 30,-468 24,-462 24,-456 24,-456 24,-444 24,-444 24,-438 30,-432 36,-432 36,-432 87,-432 87,-432 93,-432 99,-438 99,-444 99,-444 99,-456 99,-456 99,-462 93,-468 87,-468"/>
<text text-anchor="middle" x="61.5" y="-447.5" font-family="sans" font-size="10.00">bbnorm_run</text>
</g>
<!-- 6&#45;&gt;5 -->
<g id="edge6" class="edge">
<title>6&#45;&gt;5</title>
<path fill="none" stroke="grey" stroke-width="2" d="M61.5,-431.7C61.5,-423.98 61.5,-414.71 61.5,-406.11"/>
<polygon fill="grey" stroke="grey" stroke-width="2" points="65,-406.1 61.5,-396.1 58,-406.1 65,-406.1"/>
</g>
<!-- 7 -->
<g id="node8" class="node">
<title>7</title>
<path fill="none" stroke="#59d856" stroke-width="2" d="M111,-540C111,-540 12,-540 12,-540 6,-540 0,-534 0,-528 0,-528 0,-516 0,-516 0,-510 6,-504 12,-504 12,-504 111,-504 111,-504 117,-504 123,-510 123,-516 123,-516 123,-528 123,-528 123,-534 117,-540 111,-540"/>
<text text-anchor="middle" x="61.5" y="-525" font-family="sans" font-size="10.00">fastp_trim_run</text>
<text text-anchor="middle" x="61.5" y="-514" font-family="sans" font-size="10.00">sample: WGA_10a_S2</text>
</g>
<!-- 7&#45;&gt;6 -->
<g id="edge7" class="edge">
<title>7&#45;&gt;6</title>
<path fill="none" stroke="grey" stroke-width="2" d="M61.5,-503.7C61.5,-495.98 61.5,-486.71 61.5,-478.11"/>
<polygon fill="grey" stroke="grey" stroke-width="2" points="65,-478.1 61.5,-468.1 58,-478.1 65,-478.1"/>
</g>
</g>
</svg>
