<?xml version="1.0" encoding="UTF-8" standalone="no"?>
<!DOCTYPE svg PUBLIC "-//W3C//DTD SVG 1.1//EN"
 "http://www.w3.org/Graphics/SVG/1.1/DTD/svg11.dtd">
<!-- Generated by graphviz version 2.49.0 (20210829.0051)
 -->
<!-- Title: snakemake_dag Pages: 1 -->
<svg width="131pt" height="476pt"
 viewBox="0.00 0.00 131.00 476.00" xmlns="http://www.w3.org/2000/svg" xmlns:xlink="http://www.w3.org/1999/xlink">
<g id="graph0" class="graph" transform="scale(1 1) rotate(0) translate(4 472)">
<title>snakemake_dag</title>
<polygon fill="white" stroke="transparent" points="-4,4 -4,-472 127,-472 127,4 -4,4"/>
<!-- 0 -->
<g id="node1" class="node">
<title>0</title>
<path fill="none" stroke="#d85656" stroke-width="2" d="M98,-36C98,-36 25,-36 25,-36 19,-36 13,-30 13,-24 13,-24 13,-12 13,-12 13,-6 19,0 25,0 25,0 98,0 98,0 104,0 110,-6 110,-12 110,-12 110,-24 110,-24 110,-30 104,-36 98,-36"/>
<text text-anchor="middle" x="61.5" y="-15.5" font-family="sans" font-size="10.00">funannotate_run</text>
</g>
<!-- 1 -->
<g id="node2" class="node">
<title>1</title>
<path fill="none" stroke="#56d8d8" stroke-width="2" d="M110,-108C110,-108 13,-108 13,-108 7,-108 1,-102 1,-96 1,-96 1,-84 1,-84 1,-78 7,-72 13,-72 13,-72 110,-72 110,-72 116,-72 122,-78 122,-84 122,-84 122,-96 122,-96 122,-102 116,-108 110,-108"/>
<text text-anchor="middle" x="61.5" y="-87.5" font-family="sans" font-size="10.00">funannotate_sort_run</text>
</g>
<!-- 1&#45;&gt;0 -->
<g id="edge1" class="edge">
<title>1&#45;&gt;0</title>
<path fill="none" stroke="grey" stroke-width="2" d="M61.5,-71.7C61.5,-63.98 61.5,-54.71 61.5,-46.11"/>
<polygon fill="grey" stroke="grey" stroke-width="2" points="65,-46.1 61.5,-36.1 58,-46.1 65,-46.1"/>
</g>
<!-- 2 -->
<g id="node3" class="node">
<title>2</title>
<path fill="none" stroke="#97d856" stroke-width="2" d="M89.5,-180C89.5,-180 33.5,-180 33.5,-180 27.5,-180 21.5,-174 21.5,-168 21.5,-168 21.5,-156 21.5,-156 21.5,-150 27.5,-144 33.5,-144 33.5,-144 89.5,-144 89.5,-144 95.5,-144 101.5,-150 101.5,-156 101.5,-156 101.5,-168 101.5,-168 101.5,-174 95.5,-180 89.5,-180"/>
<text text-anchor="middle" x="61.5" y="-159.5" font-family="sans" font-size="10.00">sizefilter_run</text>
</g>
<!-- 2&#45;&gt;1 -->
<g id="edge2" class="edge">
<title>2&#45;&gt;1</title>
<path fill="none" stroke="grey" stroke-width="2" d="M61.5,-143.7C61.5,-135.98 61.5,-126.71 61.5,-118.11"/>
<polygon fill="grey" stroke="grey" stroke-width="2" points="65,-118.1 61.5,-108.1 58,-118.1 65,-118.1"/>
</g>
<!-- 3 -->
<g id="node4" class="node">
<title>3</title>
<path fill="none" stroke="#56d89a" stroke-width="2" d="M85.5,-252C85.5,-252 37.5,-252 37.5,-252 31.5,-252 25.5,-246 25.5,-240 25.5,-240 25.5,-228 25.5,-228 25.5,-222 31.5,-216 37.5,-216 37.5,-216 85.5,-216 85.5,-216 91.5,-216 97.5,-222 97.5,-228 97.5,-228 97.5,-240 97.5,-240 97.5,-246 91.5,-252 85.5,-252"/>
<text text-anchor="middle" x="61.5" y="-231.5" font-family="sans" font-size="10.00">spades_run</text>
</g>
<!-- 3&#45;&gt;2 -->
<g id="edge3" class="edge">
<title>3&#45;&gt;2</title>
<path fill="none" stroke="grey" stroke-width="2" d="M61.5,-215.7C61.5,-207.98 61.5,-198.71 61.5,-190.11"/>
<polygon fill="grey" stroke="grey" stroke-width="2" points="65,-190.1 61.5,-180.1 58,-190.1 65,-190.1"/>
</g>
<!-- 4 -->
<g id="node5" class="node">
<title>4</title>
<path fill="none" stroke="#d6d856" stroke-width="2" d="M88,-324C88,-324 35,-324 35,-324 29,-324 23,-318 23,-312 23,-312 23,-300 23,-300 23,-294 29,-288 35,-288 35,-288 88,-288 88,-288 94,-288 100,-294 100,-300 100,-300 100,-312 100,-312 100,-318 94,-324 88,-324"/>
<text text-anchor="middle" x="61.5" y="-303.5" font-family="sans" font-size="10.00">kraken2_run</text>
</g>
<!-- 4&#45;&gt;3 -->
<g id="edge4" class="edge">
<title>4&#45;&gt;3</title>
<path fill="none" stroke="grey" stroke-width="2" d="M61.5,-287.7C61.5,-279.98 61.5,-270.71 61.5,-262.11"/>
<polygon fill="grey" stroke="grey" stroke-width="2" points="65,-262.1 61.5,-252.1 58,-262.1 65,-262.1"/>
</g>
<!-- 5 -->
<g id="node6" class="node">
<title>5</title>
<path fill="none" stroke="#569ad8" stroke-width="2" d="M87,-396C87,-396 36,-396 36,-396 30,-396 24,-390 24,-384 24,-384 24,-372 24,-372 24,-366 30,-360 36,-360 36,-360 87,-360 87,-360 93,-360 99,-366 99,-372 99,-372 99,-384 99,-384 99,-390 93,-396 87,-396"/>
<text text-anchor="middle" x="61.5" y="-375.5" font-family="sans" font-size="10.00">bbnorm_run</text>
</g>
<!-- 5&#45;&gt;4 -->
<g id="edge5" class="edge">
<title>5&#45;&gt;4</title>
<path fill="none" stroke="grey" stroke-width="2" d="M61.5,-359.7C61.5,-351.98 61.5,-342.71 61.5,-334.11"/>
<polygon fill="grey" stroke="grey" stroke-width="2" points="65,-334.1 61.5,-324.1 58,-334.1 65,-334.1"/>
</g>
<!-- 6 -->
<g id="node7" class="node">
<title>6</title>
<path fill="none" stroke="#d89556" stroke-width="2" d="M111,-468C111,-468 12,-468 12,-468 6,-468 0,-462 0,-456 0,-456 0,-444 0,-444 0,-438 6,-432 12,-432 12,-432 111,-432 111,-432 117,-432 123,-438 123,-444 123,-444 123,-456 123,-456 123,-462 117,-468 111,-468"/>
<text text-anchor="middle" x="61.5" y="-453" font-family="sans" font-size="10.00">fastp_trim_run</text>
<text text-anchor="middle" x="61.5" y="-442" font-family="sans" font-size="10.00">sample: WGA_10a_S2</text>
</g>
<!-- 6&#45;&gt;5 -->
<g id="edge6" class="edge">
<title>6&#45;&gt;5</title>
<path fill="none" stroke="grey" stroke-width="2" d="M61.5,-431.7C61.5,-423.98 61.5,-414.71 61.5,-406.11"/>
<polygon fill="grey" stroke="grey" stroke-width="2" points="65,-406.1 61.5,-396.1 58,-406.1 65,-406.1"/>
</g>
</g>
</svg>
